<?xml version="1.0" standalone="no"?>
<!DOCTYPE svg PUBLIC "-//W3C//DTD SVG 20010904//EN"
 "http://www.w3.org/TR/2001/REC-SVG-20010904/DTD/svg10.dtd">
<svg version="1.0" xmlns="http://www.w3.org/2000/svg"
 width="767.000000pt" height="466.000000pt" viewBox="0 0 767.000000 466.000000"
 preserveAspectRatio="xMidYMid meet">
<metadata>
Created by potrace 1.16, written by Peter Selinger 2001-2019
</metadata>
<g transform="translate(0.000000,466.000000) scale(0.100000,-0.100000)"
fill="#000000" stroke="none">
<path d="M4979 4576 c-2 -2 -28 -6 -57 -9 -39 -4 -58 -11 -73 -28 -19 -22 -22
-22 -32 -8 -9 11 -22 15 -45 11 -18 -2 -39 1 -47 8 -11 9 -20 8 -44 -9 -34
-25 -32 -54 3 -46 11 2 48 6 81 9 181 14 200 18 223 42 28 29 49 31 57 4 3
-11 12 -20 20 -20 7 0 25 -14 39 -31 20 -24 26 -41 26 -79 0 -36 5 -52 17 -59
14 -8 15 -12 4 -25 -9 -11 -11 -28 -7 -54 4 -20 9 -62 10 -93 2 -31 6 -62 10
-68 5 -7 9 -53 11 -104 2 -51 14 -164 25 -252 11 -88 22 -189 24 -225 2 -36
12 -83 21 -105 12 -26 13 -41 6 -43 -6 -2 -11 -18 -11 -36 0 -19 -8 -40 -17
-48 -26 -23 -91 -48 -124 -48 -19 0 -29 -5 -29 -15 0 -8 -7 -15 -15 -15 -8 0
-15 5 -15 11 0 8 -26 10 -87 5 -147 -10 -436 -50 -440 -61 -9 -30 13 -33 142
-19 470 52 450 49 447 67 -4 22 12 22 33 1 14 -14 22 -15 54 -6 20 7 48 23 62
38 23 25 24 31 22 141 -2 90 -6 119 -18 133 -10 11 -12 20 -6 24 11 7 7 168
-4 186 -4 6 -8 52 -10 103 -2 50 -11 135 -19 187 -9 52 -13 102 -11 110 3 8 1
21 -3 28 -5 7 -5 36 -1 65 4 30 2 57 -3 64 -5 7 -12 50 -15 95 -7 96 -21 131
-66 158 -28 18 -125 29 -138 16z"/>
<path d="M4480 4514 c-67 -11 -90 -11 -108 -2 -18 10 -25 9 -31 -1 -5 -7 -19
-14 -32 -16 -60 -8 -212 -25 -294 -34 -49 -5 -105 -17 -124 -27 -18 -9 -53
-17 -76 -18 -24 0 -47 -4 -51 -8 -12 -13 -24 -9 -24 7 0 8 -6 15 -12 15 -28 0
-194 -21 -207 -26 -8 -2 -53 -7 -100 -10 -97 -5 -150 -10 -201 -17 -19 -3 -86
-11 -147 -18 -81 -9 -113 -16 -113 -26 0 -16 -17 -17 -22 -2 -4 13 -29 13
-131 3 -52 -5 -70 -11 -78 -25 -12 -23 -31 -25 -22 -2 5 14 0 15 -43 10 -27
-3 -74 -9 -105 -12 -39 -5 -59 -13 -67 -26 -11 -17 -9 -19 15 -19 16 0 102 9
193 19 91 11 200 23 243 27 42 3 80 10 83 15 3 5 16 6 28 3 32 -8 170 13 174
26 3 8 8 8 17 0 12 -10 105 -3 103 9 -2 18 4 21 22 8 15 -10 34 -11 82 -4 35
4 88 10 118 12 30 3 114 11 185 20 72 8 153 17 180 20 216 18 683 73 696 80
17 11 -11 35 -40 34 -14 -1 -64 -8 -111 -15z"/>
<path d="M2285 4276 c-122 -14 -154 -28 -179 -80 -14 -30 -14 -48 1 -199 13
-127 20 -168 31 -172 24 -9 35 10 20 34 -7 11 -16 21 -20 21 -5 0 -8 4 -8 10
0 5 7 7 15 4 18 -7 18 -7 0 126 -19 139 -19 144 8 176 21 24 36 29 123 41 54
8 115 14 135 13 29 0 38 4 42 20 6 24 1 24 -168 6z"/>
<path d="M4642 4243 c-45 -6 -66 -41 -59 -96 6 -42 30 -71 101 -120 21 -15 26
-26 24 -50 -4 -41 -39 -50 -55 -14 -9 20 -17 23 -38 19 -24 -4 -26 -8 -21 -35
8 -40 32 -56 84 -57 55 0 88 22 96 65 10 51 -14 96 -72 137 -57 42 -74 75 -47
94 20 15 45 8 45 -12 0 -15 55 -20 63 -6 10 18 -14 70 -35 76 -23 6 -29 6 -86
-1z"/>
<path d="M4404 4220 c-54 -17 -57 -26 -46 -160 5 -66 15 -127 21 -134 6 -7 9
-21 5 -30 -15 -38 107 -46 147 -10 18 16 20 27 14 109 -7 110 -11 125 -36 125
-21 0 -23 8 -9 30 8 13 10 12 10 -2 0 -10 5 -18 10 -18 14 0 12 53 -3 73 -15
21 -71 29 -113 17z m66 -80 c7 -33 17 -57 21 -54 5 3 7 9 4 14 -3 4 3 7 12 6
9 -2 19 -9 21 -17 3 -11 1 -11 -7 1 -9 13 -11 13 -11 -2 0 -10 -7 -18 -15 -18
-11 0 -12 -5 -5 -24 5 -13 6 -33 3 -44 -3 -14 2 -24 16 -32 12 -6 19 -15 16
-21 -4 -5 -2 -9 4 -9 6 0 8 -7 5 -15 -7 -18 -34 -20 -34 -2 0 9 -2 9 -9 -1 -4
-8 -19 -12 -32 -10 -19 2 -25 10 -27 36 -2 17 -8 32 -14 32 -6 0 -8 -8 -6 -18
4 -12 -1 -18 -13 -19 -16 -2 -18 5 -17 43 3 48 11 57 23 22 6 -16 11 12 15 82
9 130 7 120 24 114 7 -3 19 -32 26 -64z"/>
<path d="M4131 4192 c-19 -3 -22 -8 -17 -30 5 -24 36 -284 36 -306 0 -5 32 -6
70 -4 98 7 114 23 106 103 -3 33 -9 91 -12 129 -3 38 -12 79 -21 93 -14 22
-22 24 -77 21 -34 -1 -72 -4 -85 -6z"/>
<path d="M3845 4164 c-6 -9 -42 -19 -95 -26 -47 -6 -86 -13 -88 -13 -1 -1 2
-14 8 -29 5 -15 15 -24 21 -21 5 4 20 4 32 1 19 -4 22 -12 22 -53 1 -56 14
-201 21 -225 4 -12 11 -14 32 -9 25 7 27 11 24 57 -2 27 -8 52 -14 55 -7 4 -7
9 0 13 15 9 3 78 -16 94 -14 11 -14 12 1 12 13 0 15 5 7 24 -14 38 -2 69 25
62 20 -5 23 -1 27 32 6 44 5 46 -7 26z"/>
<path d="M3943 4163 c-19 -7 -16 -33 5 -34 9 -1 24 -2 32 -3 10 -1 17 -17 21
-51 4 -27 10 -71 14 -97 7 -45 6 -48 -14 -48 -11 0 -21 3 -22 8 0 4 -2 29 -3
55 -1 28 -8 52 -15 57 -8 4 -12 17 -8 29 6 26 -18 49 -27 25 -8 -20 -8 -289 0
-296 15 -16 43 6 46 36 3 28 6 31 38 31 28 0 35 -4 40 -25 6 -25 29 -36 55
-26 10 4 5 32 -25 133 -21 70 -40 135 -43 143 -3 8 -8 27 -11 43 -5 23 -11 27
-39 26 -17 0 -38 -3 -44 -6z"/>
<path d="M3506 4112 c-14 -3 -17 -10 -12 -34 3 -16 13 -91 22 -166 9 -76 19
-140 23 -144 3 -4 16 -5 29 -2 15 5 22 14 23 33 l1 26 7 -25 c6 -21 12 -24 36
-22 37 5 50 16 41 38 -5 12 -14 15 -35 11 -18 -4 -33 -1 -40 7 -6 7 -16 60
-21 117 -16 164 -20 172 -74 161z"/>
<path d="M3384 4076 c3 -13 9 -78 12 -145 5 -90 3 -125 -6 -136 -17 -21 -50
-19 -51 3 -1 18 -3 79 -7 210 l-2 82 -36 0 -37 0 7 -62 c4 -35 9 -103 12 -153
3 -52 11 -99 19 -112 17 -25 64 -33 110 -19 60 18 62 25 50 229 l-8 127 -35 0
c-31 0 -34 -2 -28 -24z"/>
<path d="M3105 4070 c-56 -9 -70 -24 -70 -74 0 -53 25 -92 78 -121 46 -25 68
-78 44 -103 -13 -13 -19 -13 -31 -2 -9 7 -16 19 -16 26 0 9 -11 14 -30 14 -26
0 -30 -4 -30 -28 0 -36 24 -58 70 -65 63 -9 110 30 110 92 0 47 -17 73 -73
111 -43 29 -52 41 -52 65 0 24 5 31 23 33 13 2 25 -3 28 -12 4 -10 18 -16 35
-16 24 0 29 4 29 23 0 48 -43 69 -115 57z"/>
<path d="M2910 4043 c-30 -2 -58 -7 -62 -12 -5 -4 -3 -58 4 -120 10 -102 13
-112 30 -108 10 3 18 1 18 -4 0 -5 -7 -9 -15 -9 -11 0 -15 -9 -13 -30 2 -33 8
-36 26 -18 9 9 13 7 18 -6 10 -25 -11 -43 -31 -26 -12 10 -15 10 -15 -4 0 -17
35 -21 103 -10 27 5 37 11 37 25 0 21 -11 24 -26 9 -7 -7 -19 -8 -37 -1 -24 9
-27 16 -27 60 0 27 4 53 10 56 6 4 4 19 -5 42 -17 40 -20 103 -5 103 6 0 10 7
10 15 0 18 12 19 27 4 8 -8 14 -6 22 9 10 18 5 34 -8 30 -3 -1 -31 -3 -61 -5z"/>
<path d="M2700 4023 c-99 -15 -92 -10 -87 -56 3 -23 9 -43 14 -44 6 -2 8 -26
5 -54 -2 -27 1 -83 9 -124 12 -69 15 -75 37 -75 23 0 23 2 20 75 -2 41 -7 75
-13 75 -12 0 -40 59 -32 67 9 8 27 -7 27 -23 0 -8 13 -17 30 -20 34 -7 46 -30
49 -96 1 -21 5 -25 21 -21 11 3 20 0 20 -6 0 -6 -7 -11 -15 -11 -8 0 -15 -7
-15 -16 0 -11 5 -14 16 -10 9 3 20 6 25 6 7 0 8 27 3 73 -5 57 -11 76 -28 89
-17 14 -19 19 -8 29 6 7 12 34 12 61 0 36 -5 52 -22 68 -12 11 -27 19 -32 19
-6 -1 -22 -3 -36 -6z"/>
<path d="M4871 3830 c-50 -8 -71 -30 -71 -74 0 -42 30 -89 76 -117 48 -28 54
-36 54 -72 0 -37 -28 -48 -48 -19 -9 14 -25 22 -43 22 -27 0 -29 -2 -23 -27 4
-16 14 -36 22 -45 29 -34 140 -15 156 27 20 54 -4 117 -57 148 -65 38 -83 62
-69 92 14 30 25 31 51 4 11 -12 28 -19 43 -17 44 6 14 89 -32 86 -8 0 -35 -4
-59 -8z"/>
<path d="M4603 3800 c-12 -5 -26 -17 -31 -27 -12 -21 3 -215 19 -254 5 -14 9
-32 7 -39 -5 -23 65 -41 104 -28 54 18 62 30 59 100 -4 129 -20 232 -38 246
-19 14 -87 15 -120 2z m76 -55 c7 -25 18 -45 25 -46 7 0 7 -2 -1 -6 -7 -2 -13
-9 -13 -14 0 -4 7 -6 15 -3 10 4 15 0 15 -10 0 -9 7 -19 15 -22 8 -4 12 -10 9
-15 -8 -13 -24 -11 -21 2 1 6 -3 13 -9 16 -7 2 -11 -13 -11 -41 -1 -36 2 -45
19 -49 11 -3 17 -10 13 -16 -3 -6 -1 -11 4 -11 13 0 14 -10 2 -29 -7 -11 -13
-12 -23 -3 -9 7 -19 8 -28 2 -22 -14 -28 -12 -40 9 -15 29 -23 230 -10 246 7
8 9 19 5 25 -3 5 0 10 7 10 8 0 20 -20 27 -45z"/>
<path d="M4372 3783 c-18 -3 -35 -10 -38 -17 -5 -14 30 -323 38 -331 9 -9 139
13 155 27 15 12 15 44 -1 211 -1 15 -3 38 -4 52 -4 56 -43 71 -150 58z"/>
<path d="M4153 3754 c-7 -3 -13 -12 -13 -20 0 -10 12 -14 41 -14 l41 0 -5 -35
c-3 -20 2 -61 10 -92 15 -59 8 -81 -21 -70 -12 5 -16 21 -16 67 0 35 -4 60
-11 60 -5 0 -8 -4 -5 -8 2 -4 1 -14 -4 -22 -6 -9 -8 2 -7 33 1 30 -3 49 -10
52 -10 3 -13 -11 -13 -53 0 -31 -3 -101 -7 -155 l-6 -99 29 4 c24 2 29 8 32
35 5 54 59 56 79 3 11 -30 27 -37 51 -21 14 8 2 58 -59 251 -26 84 -27 85 -60
87 -19 1 -40 0 -46 -3z"/>
<path d="M4005 3732 c-6 -4 -12 -45 -14 -92 -2 -47 -5 -88 -8 -93 -9 -15 -21
4 -28 42 -5 31 -10 39 -23 34 -13 -4 -14 -2 -4 4 11 8 11 17 0 51 -12 38 -16
42 -45 42 -38 0 -41 -9 -13 -41 11 -13 19 -19 18 -12 -2 6 2 13 7 15 13 4 23
-81 12 -108 -6 -15 -1 -48 18 -109 l26 -87 42 6 c23 4 42 8 44 10 1 1 5 60 9
132 4 71 10 134 13 139 4 6 7 17 6 25 -1 8 -3 23 -3 33 -2 17 -38 24 -57 9z"/>
<path d="M3679 3695 c-15 -8 -29 -22 -33 -30 -9 -24 12 -235 25 -251 6 -7 8
-22 4 -33 -5 -15 1 -21 30 -31 56 -19 135 8 135 47 0 18 -17 16 -24 -4 -6 -14
-8 -14 -21 3 -9 12 -14 14 -15 6 0 -9 -10 -12 -27 -10 -25 3 -29 8 -35 53 -10
81 -9 203 3 210 6 4 8 14 5 22 -4 9 -1 13 6 11 14 -5 46 -99 40 -119 -3 -8 5
-3 17 10 16 18 21 20 21 8 0 -8 -6 -22 -14 -30 -9 -8 -14 -34 -14 -68 1 -34 3
-45 7 -29 3 14 12 26 20 28 11 2 12 0 3 -10 -12 -15 -5 -58 9 -58 19 0 21 33
9 146 -11 97 -16 117 -33 129 -27 19 -84 19 -118 0z"/>
<path d="M3485 3673 c-73 -9 -78 -12 -71 -43 7 -38 -4 -38 -37 0 -33 36 -62
44 -132 35 -63 -7 -61 -1 -45 -122 15 -112 18 -120 40 -126 11 -3 20 -11 20
-18 0 -10 -3 -10 -12 -1 -20 20 -28 14 -28 -20 0 -64 8 -76 43 -69 30 6 32 9
28 41 -3 19 -5 51 -5 70 -1 32 1 34 32 36 41 2 58 16 66 54 7 37 -1 60 -21 60
-13 0 -13 -2 -2 -17 12 -14 12 -16 -1 -11 -8 2 -16 14 -16 26 -1 18 4 22 32
22 18 0 36 -5 39 -10 4 -6 11 -8 16 -5 5 4 6 -13 2 -40 -8 -64 16 -218 34
-211 7 3 13 1 13 -4 0 -6 5 -10 10 -10 6 0 10 9 10 20 0 11 5 20 10 20 7 0 7
6 1 19 -6 10 -12 37 -13 60 -2 25 -8 41 -15 41 -7 0 -13 9 -13 19 0 11 -4 23
-10 26 -13 8 -13 25 1 25 6 0 13 -9 16 -20 5 -18 19 -24 48 -21 14 1 35 -56
35 -92 0 -20 5 -27 20 -27 11 0 20 -5 20 -11 0 -6 -7 -9 -15 -5 -9 3 -15 0
-15 -9 0 -10 10 -15 28 -15 28 0 29 2 23 38 -4 20 -12 37 -18 37 -6 0 -15 3
-19 8 -4 4 0 7 9 7 26 0 22 54 -5 73 -19 12 -21 18 -10 28 20 21 15 106 -8
129 -20 20 -26 21 -85 13z"/>
<path d="M3084 3632 c-10 -6 -24 -66 -30 -125 -4 -47 -15 -24 -50 101 -3 9
-18 12 -46 10 -49 -3 -47 5 -35 -153 17 -208 16 -205 49 -205 l30 0 -7 81 c-9
104 11 106 35 3 11 -46 22 -70 32 -72 24 -5 31 14 29 83 -1 58 10 87 26 71 5
-5 11 -66 13 -134 0 -9 10 -12 28 -10 18 2 27 9 26 21 0 9 -1 37 -2 62 -2 33
-6 45 -17 45 -12 0 -13 4 -4 18 13 21 4 92 -11 92 -14 0 -13 27 1 32 12 4 2
58 -11 58 -5 0 -12 -9 -15 -20 -6 -20 -45 -29 -45 -10 0 6 5 10 11 10 7 0 9 9
6 21 -4 13 -1 19 6 16 7 -2 21 -1 32 4 17 6 15 8 -10 8 -16 0 -35 -3 -41 -7z"/>
<path d="M2730 3583 l-35 -18 3 -119 c2 -69 8 -128 15 -140 6 -11 12 -30 12
-41 0 -29 62 -43 111 -24 39 15 64 43 50 56 -5 4 -11 2 -13 -4 -3 -7 -11 -13
-18 -13 -7 0 -16 6 -18 13 -4 10 -6 10 -6 0 -1 -8 -14 -13 -31 -13 -22 0 -30
5 -31 18 0 9 -4 64 -8 121 -8 104 0 151 25 151 6 0 14 -18 18 -40 4 -25 14
-43 26 -50 16 -9 20 -8 21 7 0 16 1 16 9 -2 12 -28 12 -37 0 -30 -5 3 -10 1
-10 -4 0 -6 -7 -11 -15 -11 -17 0 -19 -18 -5 -40 5 -9 5 -19 -1 -27 -13 -15
-3 -33 17 -33 8 0 14 -7 14 -16 0 -9 6 -14 13 -11 6 2 11 15 10 28 -1 13 -5
68 -8 121 -4 53 -12 104 -19 113 -18 25 -85 29 -126 8z"/>
<path d="M2170 3571 c-12 -13 -14 -31 -8 -90 4 -41 11 -77 16 -80 4 -3 14 -21
21 -39 11 -26 11 -41 1 -76 -11 -41 -10 -79 6 -221 13 -113 67 -160 167 -144
28 5 74 10 101 10 l49 2 -23 19 c-20 16 -37 18 -124 15 -105 -4 -146 4 -127
27 7 8 7 32 1 72 -6 32 -10 63 -10 68 0 4 -7 6 -15 2 -9 -3 -15 0 -15 10 0 10
6 14 15 10 19 -7 20 -14 -10 219 -2 22 -8 77 -11 123 -4 45 -10 84 -13 86 -3
1 -13 -4 -21 -13z"/>
<path d="M4790 3267 c-3 -3 -45 -7 -95 -11 -156 -10 -420 -38 -502 -51 -24 -4
-33 -11 -33 -25 0 -18 -32 -36 -47 -27 -5 3 -33 0 -63 -4 -30 -5 -67 -9 -82
-9 -21 0 -25 -3 -21 -20 7 -25 45 -26 223 -6 69 8 154 17 190 21 128 11 138
14 132 37 -5 19 -10 20 -81 14 -173 -16 -199 -17 -205 -7 -8 12 26 18 149 27
50 3 95 9 100 13 6 3 28 6 50 7 81 1 370 27 378 34 4 3 -14 7 -41 9 -26 1 -50
0 -52 -2z"/>
<path d="M3770 3120 c-47 -4 -96 -10 -110 -14 -14 -3 -90 -12 -169 -20 -111
-10 -147 -17 -156 -29 -7 -9 -14 -14 -17 -12 -3 3 -11 -2 -19 -11 -13 -16 -9
-17 46 -11 83 9 94 11 113 28 36 31 75 32 50 2 -9 -11 -4 -13 28 -8 21 3 115
14 207 25 92 10 172 22 177 25 6 3 10 13 10 21 0 15 -14 16 -160 4z"/>
<path d="M3095 3043 c-88 -7 -161 -18 -163 -23 -2 -6 -15 -7 -28 -4 -14 4 -68
1 -120 -6 l-95 -13 30 -18 c32 -20 65 -18 351 18 69 8 143 15 165 14 30 -1 36
1 25 9 -13 9 -12 12 4 25 14 10 15 15 5 14 -8 -1 -86 -8 -174 -16z"/>
<path d="M5575 2750 c-76 -17 -115 -66 -115 -143 0 -82 45 -139 119 -152 41
-7 121 10 121 25 0 4 3 16 6 25 6 15 1 14 -34 -4 -49 -25 -73 -26 -111 -7 -74
39 -89 137 -30 195 35 35 73 43 121 26 35 -12 38 -11 38 6 0 11 -6 21 -12 23
-32 10 -76 13 -103 6z"/>
<path d="M376 2643 c25 -60 53 -125 61 -146 10 -24 21 -37 31 -35 9 2 39 60
73 143 33 77 59 141 59 143 0 1 -8 2 -19 2 -14 0 -28 -24 -61 -102 -23 -57
-45 -107 -50 -111 -7 -8 -90 179 -90 202 0 6 -11 11 -24 11 l-25 0 45 -107z"/>
<path d="M4750 2604 l0 -146 81 4 c78 3 82 4 114 39 46 51 54 105 23 167 -30
60 -71 82 -155 82 l-63 0 0 -146z m158 88 c39 -37 51 -92 29 -138 -20 -41 -54
-64 -107 -71 l-40 -6 0 122 0 121 44 0 c34 0 50 -6 74 -28z"/>
<path d="M5030 2605 l0 -145 80 0 c64 0 80 3 80 15 0 12 -13 15 -60 15 l-60 0
0 55 0 55 55 0 c42 0 55 3 55 15 0 12 -13 15 -55 15 l-55 0 0 45 0 45 60 0
c47 0 60 3 60 15 0 12 -16 15 -80 15 l-80 0 0 -145z"/>
<path d="M5257 2730 c-20 -16 -27 -31 -27 -54 0 -39 18 -57 80 -84 75 -32 91
-72 40 -100 -25 -14 -44 -10 -112 26 -5 2 -8 -6 -8 -18 0 -28 61 -54 108 -46
100 16 110 126 14 156 -20 7 -47 19 -59 26 -25 16 -30 53 -11 72 15 15 63 16
89 1 18 -9 20 -8 17 13 -3 20 -9 23 -54 26 -39 2 -56 -2 -77 -18z"/>
<path d="M5786 2731 c-67 -44 -88 -140 -46 -209 28 -46 98 -76 157 -67 143 21
179 215 53 280 -41 21 -128 19 -164 -4z m152 -29 c51 -33 66 -104 32 -159 -78
-128 -269 -24 -204 112 31 66 110 87 172 47z"/>
<path d="M6080 2605 l0 -145 73 0 c64 0 76 3 95 23 31 33 29 87 -3 117 -22 21
-23 25 -10 44 21 30 18 53 -10 81 -20 21 -34 25 -85 25 l-60 0 0 -145z"/>
<path d="M6320 2605 l0 -145 80 0 c64 0 80 3 80 15 0 12 -13 15 -60 15 l-60 0
0 55 0 55 55 0 c42 0 55 3 55 15 0 12 -13 15 -55 15 l-55 0 0 45 0 45 60 0
c47 0 60 3 60 15 0 12 -16 15 -80 15 l-80 0 0 -145z"/>
<path d="M6530 2605 c0 -138 1 -145 20 -145 18 0 20 7 20 55 0 54 0 55 29 55
25 0 35 -8 63 -55 24 -40 39 -55 56 -55 12 0 22 2 22 5 0 3 -16 30 -37 60
l-36 55 21 23 c31 33 30 90 -3 122 -21 22 -33 25 -90 25 l-65 0 0 -145z"/>
<path d="M6740 2735 c0 -11 12 -15 45 -15 l45 0 0 -130 c0 -123 1 -130 20
-130 19 0 20 7 20 130 l0 130 45 0 c33 0 45 4 45 15 0 12 -19 15 -110 15 -91
0 -110 -3 -110 -15z"/>
<path d="M7005 2643 c-26 -60 -56 -125 -65 -145 -18 -38 -18 -38 3 -38 16 0
27 11 39 40 l17 40 66 0 67 0 15 -40 c11 -28 22 -40 36 -40 23 0 26 -11 -50
163 -31 70 -61 127 -68 127 -7 0 -34 -48 -60 -107z"/>
<path d="M644 2640 c-60 -24 -73 -112 -25 -161 24 -23 38 -29 73 -29 53 0 73
12 64 36 -5 13 -9 15 -18 6 -17 -17 -60 -15 -86 4 -37 26 -25 34 53 34 84 0
88 5 60 65 -23 47 -71 65 -121 45z"/>
<path d="M954 2641 c-61 -26 -73 -113 -24 -163 27 -27 35 -29 73 -24 23 3 54
6 70 6 l27 0 0 90 0 90 -27 0 c-16 0 -44 2 -63 5 -19 2 -45 0 -56 -4z"/>
<path d="M1554 2640 c-33 -13 -54 -50 -54 -93 0 -30 7 -46 30 -69 28 -28 36
-30 78 -25 77 8 112 71 80 142 -21 46 -82 66 -134 45z"/>
<path d="M1780 2641 l-35 -6 0 -88 c0 -80 2 -87 20 -87 18 0 20 5 17 45 -5 64
4 94 34 107 40 19 64 -17 64 -93 0 -52 2 -59 20 -59 18 0 20 7 20 70 0 65 2
71 25 82 21 9 28 8 45 -7 16 -14 20 -31 20 -82 0 -56 2 -63 20 -63 18 0 20 7
20 60 0 70 -13 104 -47 119 -33 15 -54 14 -81 -5 -20 -14 -24 -14 -44 0 -23
16 -38 17 -98 7z"/>
<path d="M2144 2640 c-33 -13 -54 -50 -54 -93 0 -30 7 -46 30 -69 28 -28 36
-30 78 -25 77 8 112 71 80 142 -21 46 -82 66 -134 45z"/>
<path d="M2524 2640 c-60 -24 -73 -112 -25 -161 24 -23 38 -29 73 -29 53 0 73
12 64 36 -5 13 -9 15 -18 6 -17 -17 -60 -15 -86 4 -37 26 -25 34 53 34 84 0
88 5 60 65 -23 47 -71 65 -121 45z"/>
<path d="M2712 2634 c-12 -8 -22 -25 -22 -38 0 -25 28 -56 51 -56 8 0 25 -7
37 -16 19 -13 21 -18 11 -31 -13 -14 -45 -14 -81 2 -14 5 -18 2 -18 -13 0 -43
122 -41 141 2 16 34 -3 62 -53 78 -31 11 -43 20 -43 34 0 16 7 19 43 17 29 -1
42 2 42 12 0 28 -72 34 -108 9z"/>
<path d="M2902 2634 c-12 -8 -22 -25 -22 -38 0 -25 28 -56 51 -56 8 0 25 -7
37 -16 19 -13 21 -18 11 -31 -13 -14 -45 -14 -81 2 -14 5 -18 2 -18 -13 0 -43
122 -41 141 2 16 34 -3 62 -53 78 -31 11 -43 20 -43 34 0 16 7 19 43 17 29 -1
42 2 42 12 0 28 -72 34 -108 9z"/>
<path d="M3114 2641 c-61 -26 -73 -113 -24 -163 27 -27 35 -29 73 -24 23 3 54
6 70 6 l27 0 0 90 0 90 -27 0 c-16 0 -44 2 -63 5 -19 2 -45 0 -56 -4z"/>
<path d="M3675 2640 c-35 -14 -66 -57 -72 -98 -5 -34 -1 -45 20 -66 40 -40
137 -36 137 5 0 16 -3 18 -19 9 -30 -15 -66 -12 -84 8 -10 10 -17 22 -17 25 0
4 33 7 74 7 82 0 96 11 77 63 -18 47 -68 67 -116 47z"/>
<path d="M4105 2640 c-35 -14 -66 -57 -72 -98 -5 -34 -1 -45 20 -66 40 -40
137 -36 137 5 0 16 -3 18 -19 9 -30 -15 -66 -12 -84 8 -31 34 -21 41 61 44
l77 3 -2 30 c-4 55 -64 88 -118 65z"/>
<path d="M4313 2643 c-36 -5 -33 0 -56 -115 -14 -68 -13 -68 9 -68 19 0 23 7
29 54 6 56 35 106 60 106 7 0 21 -7 30 -17 17 -16 17 -21 -2 -115 -5 -23 -2
-28 15 -28 17 0 22 8 28 57 10 81 61 128 94 88 12 -14 10 -58 -7 -122 -4 -18
-1 -23 15 -23 17 0 22 10 31 66 10 56 10 70 -4 90 -21 32 -59 40 -99 21 -27
-13 -35 -13 -51 -1 -19 14 -29 15 -92 7z"/>
<path d="M269 2275 c-35 -19 -51 -64 -36 -96 7 -13 31 -33 53 -44 23 -11 48
-26 57 -33 21 -18 10 -50 -24 -68 -29 -14 -43 -11 -111 24 -5 2 -8 -8 -8 -22
0 -21 7 -27 41 -37 60 -19 118 3 142 53 24 49 12 71 -58 104 -58 28 -71 45
-55 75 14 25 56 35 92 21 23 -8 30 -8 34 3 3 8 3 19 -1 25 -9 15 -96 12 -126
-5z"/>
<path d="M580 2283 c0 -4 -11 -69 -25 -143 -14 -74 -25 -136 -25 -137 0 -2 9
-3 19 -3 16 0 21 14 35 88 9 48 16 95 16 105 0 33 16 16 39 -43 30 -75 47 -77
95 -11 63 85 66 84 45 -31 -10 -57 -19 -104 -19 -105 0 -2 9 -3 20 -3 11 0 20
3 20 8 0 4 11 68 25 142 14 74 25 136 25 138 0 1 -10 2 -22 2 -17 0 -38 -21
-78 -75 -30 -41 -57 -74 -60 -74 -3 -1 -19 32 -35 72 -24 55 -36 73 -53 75
-12 2 -22 0 -22 -5z"/>
<path d="M910 2283 c0 -5 -11 -69 -25 -143 -14 -74 -25 -136 -25 -137 0 -2 9
-3 19 -3 16 0 21 10 28 52 l8 53 48 7 c79 11 117 48 117 114 0 44 -32 64 -105
64 -36 0 -65 -3 -65 -7z"/>
<path d="M1330 2283 c0 -5 -11 -69 -25 -143 -14 -74 -25 -136 -25 -138 0 -2
37 -2 82 0 52 2 83 7 85 15 3 8 -15 13 -59 15 l-63 3 8 53 9 52 59 0 c46 0 59
3 59 15 0 12 -13 15 -56 15 l-56 0 6 31 c3 17 6 38 6 45 0 11 17 14 65 14 51
0 65 3 65 15 0 12 -16 15 -80 15 -44 0 -80 -3 -80 -7z"/>
<path d="M1569 2275 c-35 -19 -51 -64 -36 -96 7 -13 31 -33 53 -44 23 -11 48
-26 57 -33 21 -18 10 -50 -24 -68 -29 -14 -43 -11 -111 24 -5 2 -8 -8 -8 -22
0 -21 7 -27 41 -37 60 -19 118 3 142 53 24 49 12 71 -58 104 -58 28 -71 45
-55 75 14 25 56 35 92 21 23 -8 30 -8 34 3 3 8 3 19 -1 25 -9 15 -96 12 -126
-5z"/>
<path d="M2270 2283 c0 -4 -11 -69 -25 -143 -14 -74 -25 -136 -25 -137 0 -2 8
-3 19 -3 16 0 21 15 35 98 10 53 20 104 22 112 3 8 30 -33 65 -98 51 -96 63
-112 84 -112 14 0 25 4 25 8 0 9 38 225 45 260 4 17 1 22 -15 22 -11 0 -20 -1
-20 -3 0 -13 -40 -220 -43 -223 -2 -2 -30 47 -63 109 -45 86 -64 113 -81 115
-13 2 -23 0 -23 -5z"/>
<path d="M2596 2150 c-47 -77 -86 -143 -86 -145 0 -3 8 -5 18 -5 11 0 27 16
41 40 l22 40 69 0 68 0 7 -40 c6 -33 11 -40 30 -40 l23 0 -18 63 c-10 34 -28
99 -40 145 -14 49 -27 82 -35 82 -7 0 -52 -63 -99 -140z"/>
<path d="M2800 2275 c0 -11 12 -15 45 -15 l46 0 -7 -37 c-4 -21 -14 -80 -24
-130 -16 -89 -16 -93 1 -93 21 0 23 7 44 130 23 136 20 130 70 130 29 0 45 5
49 15 5 13 -11 15 -109 15 -96 0 -115 -3 -115 -15z"/>
<path d="M3053 2278 c0 -7 -8 -60 -18 -117 -17 -101 -17 -104 2 -129 39 -52
119 -53 175 -3 27 24 33 40 53 144 l22 117 -23 0 c-13 0 -23 -3 -22 -7 4 -16
-25 -179 -37 -209 -16 -38 -65 -61 -102 -48 -46 16 -49 33 -27 153 l20 111
-21 0 c-12 0 -22 -6 -22 -12z"/>
<path d="M3350 2283 c0 -5 -11 -69 -25 -143 -14 -74 -25 -136 -25 -137 0 -2 9
-3 19 -3 16 0 21 10 28 53 8 48 10 52 38 55 28 3 33 -2 58 -53 19 -39 32 -55
47 -55 25 0 25 -1 -7 64 l-26 54 27 24 c38 32 47 97 17 127 -17 17 -33 21 -86
21 -36 0 -65 -3 -65 -7z"/>
<path d="M3616 2150 c-47 -77 -86 -143 -86 -145 0 -3 8 -5 18 -5 11 0 27 16
41 40 l22 40 69 0 68 0 7 -40 c6 -33 11 -40 30 -40 l23 0 -18 63 c-10 34 -28
99 -40 145 -14 49 -27 82 -35 82 -7 0 -52 -63 -99 -140z"/>
<path d="M4330 2215 c0 -44 -1 -44 -24 -34 -14 7 -40 9 -60 5 -77 -15 -103
-110 -46 -168 27 -27 35 -29 73 -24 23 3 54 6 70 6 l27 0 0 130 c0 123 -1 130
-20 130 -17 0 -20 -7 -20 -45z"/>
<path d="M1904 2180 c-60 -24 -73 -112 -25 -161 24 -23 38 -29 73 -29 53 0 73
12 64 36 -5 13 -9 15 -18 6 -17 -17 -60 -15 -86 4 -37 26 -25 34 53 34 84 0
88 5 60 65 -23 47 -71 65 -121 45z"/>
<path d="M4474 2180 c-60 -24 -73 -112 -25 -161 24 -23 38 -29 73 -29 53 0 73
12 64 36 -5 13 -9 15 -18 6 -17 -17 -60 -15 -86 4 -37 26 -25 34 53 34 84 0
88 5 60 65 -23 47 -71 65 -121 45z"/>
<path d="M6664 2180 c-60 -24 -73 -112 -25 -161 24 -23 38 -29 73 -29 53 0 73
12 64 36 -5 13 -9 15 -18 6 -17 -17 -60 -15 -86 4 -37 26 -25 34 53 34 84 0
88 5 60 65 -23 47 -71 65 -121 45z"/>
<path d="M6852 2174 c-12 -8 -22 -25 -22 -38 0 -25 28 -56 51 -56 8 0 25 -7
37 -16 19 -13 21 -18 11 -31 -13 -14 -45 -14 -81 2 -14 5 -18 2 -18 -13 0 -43
122 -41 141 2 16 34 -3 62 -53 78 -31 11 -43 20 -43 34 0 16 7 19 43 17 29 -1
42 2 42 12 0 28 -72 34 -108 9z"/>
<path d="M7194 2181 c-61 -26 -73 -113 -24 -163 27 -27 35 -29 73 -24 23 3 54
6 70 6 l27 0 0 90 0 90 -27 0 c-16 0 -44 2 -63 5 -19 2 -45 0 -56 -4z"/>
<path d="M170 1940 c0 -7 260 -10 760 -10 500 0 760 3 760 10 0 7 -260 10
-760 10 -500 0 -760 -3 -760 -10z"/>
<path d="M2195 1940 c-4 -7 300 -10 904 -10 601 0 911 3 911 10 0 14 -1806 14
-1815 0z"/>
<path d="M1070 1685 l0 -145 80 0 c64 0 80 3 80 15 0 12 -13 15 -60 15 l-60 0
0 55 0 55 55 0 c42 0 55 3 55 15 0 12 -13 15 -55 15 l-55 0 0 45 0 45 60 0
c47 0 60 3 60 15 0 12 -16 15 -80 15 l-80 0 0 -145z"/>
<path d="M1280 1685 l0 -145 80 0 c64 0 80 3 80 15 0 12 -13 15 -60 15 l-60 0
0 130 c0 123 -1 130 -20 130 -19 0 -20 -7 -20 -145z"/>
<path d="M1580 1686 c0 -138 1 -146 20 -146 18 0 20 8 22 108 l3 107 35 -62
c21 -38 42 -63 52 -63 10 0 33 26 57 68 l41 67 0 -112 c0 -106 1 -113 20 -113
19 0 20 7 20 145 0 144 0 145 -22 145 -18 0 -33 -17 -67 -76 -24 -41 -46 -72
-50 -69 -3 4 -24 37 -47 73 -27 45 -48 68 -62 70 -22 3 -22 2 -22 -142z"/>
<path d="M2010 1686 c0 -139 1 -146 20 -146 18 0 20 8 22 109 l3 109 75 -106
c61 -86 81 -108 103 -110 l27 -3 0 145 c0 139 -1 146 -20 146 -18 0 -20 -8
-22 -116 l-3 -116 -80 113 c-56 79 -87 115 -103 117 -22 3 -22 3 -22 -142z"/>
<path d="M2375 1723 c-26 -60 -56 -125 -65 -145 -18 -38 -18 -38 3 -38 16 0
27 11 39 40 l17 40 66 0 67 0 15 -40 c11 -28 22 -40 36 -40 23 0 26 -11 -50
163 -31 70 -61 127 -68 127 -7 0 -34 -48 -60 -107z"/>
<path d="M2610 1686 c0 -139 1 -146 20 -146 18 0 20 8 22 109 l3 109 75 -106
c61 -86 81 -108 103 -110 l27 -3 0 145 c0 139 -1 146 -20 146 -18 0 -20 -8
-22 -116 l-3 -116 -80 113 c-56 79 -87 115 -103 117 -22 3 -22 3 -22 -142z"/>
<path d="M2920 1684 l0 -146 81 4 c78 3 82 4 114 39 46 51 54 105 23 167 -30
60 -71 82 -155 82 l-63 0 0 -146z m158 88 c39 -37 51 -92 29 -138 -20 -41 -54
-64 -107 -71 l-40 -6 0 122 0 121 44 0 c34 0 50 -6 74 -28z"/>
<path d="M3256 1811 c-67 -44 -88 -140 -46 -209 28 -46 98 -76 157 -67 143 21
179 215 53 280 -41 21 -128 19 -164 -4z m152 -29 c51 -33 66 -104 32 -159 -78
-128 -269 -24 -204 112 31 66 110 87 172 47z"/>
<path d="M6190 1755 c0 -44 -1 -44 -24 -34 -14 7 -40 9 -60 5 -77 -15 -103
-110 -46 -168 27 -27 35 -29 73 -24 23 3 54 6 70 6 l27 0 0 130 c0 123 -1 130
-20 130 -17 0 -20 -7 -20 -45z"/>
<path d="M3734 1720 c-33 -13 -54 -50 -54 -93 0 -30 7 -46 30 -69 28 -28 36
-30 78 -25 77 8 112 71 80 142 -21 46 -82 66 -134 45z"/>
<path d="M3942 1714 c-12 -8 -22 -25 -22 -38 0 -25 28 -56 51 -56 8 0 25 -7
37 -16 19 -13 21 -18 11 -31 -13 -14 -45 -14 -81 2 -14 5 -18 2 -18 -13 0 -43
122 -41 141 2 16 34 -3 62 -53 78 -31 11 -43 20 -43 34 0 16 7 19 43 17 29 -1
42 2 42 12 0 28 -72 34 -108 9z"/>
<path d="M4262 1714 c-12 -8 -22 -25 -22 -38 0 -25 28 -56 51 -56 8 0 25 -7
37 -16 19 -13 21 -18 11 -31 -13 -14 -45 -14 -81 2 -14 5 -18 2 -18 -13 0 -43
122 -41 141 2 16 34 -3 62 -53 78 -31 11 -43 20 -43 34 0 16 7 19 43 17 29 -1
42 2 42 12 0 28 -72 34 -108 9z"/>
<path d="M4560 1721 l-35 -6 0 -88 c0 -80 2 -87 20 -87 18 0 20 5 17 55 -4 62
15 105 48 105 36 0 50 -27 50 -96 0 -57 2 -64 20 -64 17 0 20 7 20 48 0 71
-16 117 -46 130 -26 13 -37 13 -94 3z"/>
<path d="M4914 1720 c-33 -13 -54 -50 -54 -93 0 -30 7 -46 30 -69 28 -28 36
-30 78 -25 77 8 112 71 80 142 -21 46 -82 66 -134 45z"/>
<path d="M5140 1721 l-35 -6 0 -88 c0 -80 2 -87 20 -87 18 0 20 5 17 45 -5 64
4 94 34 107 40 19 64 -17 64 -93 0 -52 2 -59 20 -59 18 0 20 7 20 70 0 65 2
71 25 82 21 9 28 8 45 -7 16 -14 20 -31 20 -82 0 -56 2 -63 20 -63 18 0 20 7
20 60 0 70 -13 104 -47 119 -33 15 -54 14 -81 -5 -20 -14 -24 -14 -44 0 -23
16 -38 17 -98 7z"/>
<path d="M5504 1721 c-61 -26 -73 -113 -24 -163 27 -27 35 -29 73 -24 23 3 54
6 70 6 l27 0 0 90 0 90 -27 0 c-16 0 -44 2 -63 5 -19 2 -45 0 -56 -4z"/>
<path d="M5722 1714 c-12 -8 -22 -25 -22 -38 0 -25 28 -56 51 -56 8 0 25 -7
37 -16 19 -13 21 -18 11 -31 -13 -14 -45 -14 -81 2 -14 5 -18 2 -18 -13 0 -43
122 -41 141 2 16 34 -3 62 -53 78 -31 11 -43 20 -43 34 0 16 7 19 43 17 29 -1
42 2 42 12 0 28 -72 34 -108 9z"/>
<path d="M6324 1721 c-61 -26 -73 -113 -24 -163 27 -27 35 -29 73 -24 23 3 54
6 70 6 l27 0 0 90 0 90 -27 0 c-16 0 -44 2 -63 5 -19 2 -45 0 -56 -4z"/>
<path d="M1610 1305 c0 -44 -1 -44 -24 -34 -14 7 -40 9 -60 5 -77 -15 -103
-110 -46 -168 27 -27 35 -29 73 -24 23 3 54 6 70 6 l27 0 0 130 c0 123 -1 130
-20 130 -17 0 -20 -7 -20 -45z"/>
<path d="M2110 1305 c0 -44 -1 -44 -24 -34 -14 7 -40 9 -60 5 -77 -15 -103
-110 -46 -168 27 -27 35 -29 73 -24 23 3 54 6 70 6 l27 0 0 130 c0 123 -1 130
-20 130 -17 0 -20 -7 -20 -45z"/>
<path d="M524 1271 c-61 -26 -73 -113 -24 -163 27 -27 35 -29 73 -24 23 3 54
6 70 6 l27 0 0 90 0 90 -27 0 c-16 0 -44 2 -63 5 -19 2 -45 0 -56 -4z"/>
<path d="M760 1271 l-35 -6 0 -88 c0 -80 2 -87 20 -87 18 0 20 5 17 55 -4 62
15 105 48 105 36 0 50 -27 50 -96 0 -57 2 -64 20 -64 17 0 20 7 20 48 0 71
-16 117 -46 130 -26 13 -37 13 -94 3z"/>
<path d="M972 1264 c-12 -8 -22 -25 -22 -38 0 -25 28 -56 51 -56 8 0 25 -7 37
-16 19 -13 21 -18 11 -31 -13 -14 -45 -14 -81 2 -14 5 -18 2 -18 -13 0 -43
122 -41 141 2 16 34 -3 62 -53 78 -31 11 -43 20 -43 34 0 16 7 19 43 17 29 -1
42 2 42 12 0 28 -72 34 -108 9z"/>
<path d="M1274 1270 c-60 -24 -73 -112 -25 -161 24 -23 38 -29 73 -29 53 0 73
12 64 36 -5 13 -9 15 -18 6 -17 -17 -60 -15 -86 4 -37 26 -25 34 53 34 84 0
88 5 60 65 -23 47 -71 65 -121 45z"/>
<path d="M1754 1271 c-61 -26 -73 -113 -24 -163 27 -27 35 -29 73 -24 23 3 54
6 70 6 l27 0 0 90 0 90 -27 0 c-16 0 -44 2 -63 5 -19 2 -45 0 -56 -4z"/>
<path d="M2254 1270 c-60 -24 -73 -112 -25 -161 24 -23 38 -29 73 -29 53 0 73
12 64 36 -5 13 -9 15 -18 6 -17 -17 -60 -15 -86 4 -37 26 -25 34 53 34 84 0
88 5 60 65 -23 47 -71 65 -121 45z"/>
<path d="M2600 1271 l-35 -6 0 -88 c0 -80 2 -87 20 -87 18 0 20 5 17 55 -4 62
15 105 48 105 36 0 50 -27 50 -96 0 -57 2 -64 20 -64 17 0 20 7 20 48 0 71
-16 117 -46 130 -26 13 -37 13 -94 3z"/>
<path d="M2834 1271 c-61 -26 -73 -113 -24 -163 27 -27 35 -29 73 -24 23 3 54
6 70 6 l27 0 0 90 0 90 -27 0 c-16 0 -44 2 -63 5 -19 2 -45 0 -56 -4z"/>
<path d="M1895 660 c-6 -34 -9 -38 -24 -28 -27 17 -69 1 -86 -32 -37 -71 3
-133 66 -100 13 7 19 7 19 0 0 -5 4 -10 8 -10 5 0 14 35 21 78 7 42 15 89 18
105 3 15 1 27 -5 27 -6 0 -13 -18 -17 -40z"/>
<path d="M6046 666 c-5 -28 -10 -33 -26 -29 -53 14 -100 -31 -100 -95 0 -40
17 -52 75 -52 l51 0 13 78 c7 42 15 89 18 105 4 20 2 27 -10 27 -9 0 -17 -13
-21 -34z"/>
<path d="M7205 660 c-6 -34 -9 -38 -24 -28 -27 17 -69 1 -86 -32 -37 -71 3
-133 66 -100 13 7 19 7 19 0 0 -5 4 -10 8 -10 5 0 14 35 21 78 7 42 15 89 18
105 3 15 1 27 -5 27 -6 0 -13 -18 -17 -40z"/>
<path d="M2201 593 c-19 -93 -25 -157 -12 -149 6 4 11 21 11 37 0 26 2 29 19
19 30 -16 50 -12 76 15 18 17 25 35 25 63 0 43 -14 62 -45 62 -12 0 -26 -5
-33 -12 -9 -9 -12 -9 -12 0 0 7 -4 12 -9 12 -5 0 -14 -21 -20 -47z"/>
<path d="M2847 628 c-18 -14 -37 -59 -37 -88 0 -26 27 -50 55 -50 58 0 108 95
70 133 -19 20 -64 22 -88 5z"/>
<path d="M4285 615 c-32 -31 -35 -99 -6 -115 53 -28 111 12 111 78 0 21 -5 43
-12 50 -20 20 -67 14 -93 -13z"/>
<path d="M5131 586 c-6 -28 -14 -73 -18 -101 l-8 -50 -313 -3 c-196 -1 -312
-6 -312 -12 0 -7 308 -10 880 -10 580 0 880 3 880 10 0 7 -189 10 -548 10
-302 0 -551 2 -554 5 -3 3 -3 17 0 30 4 21 10 25 42 25 49 0 80 35 80 90 0 48
-15 60 -73 58 l-46 -1 -10 -51z"/>
<path d="M5608 629 c-10 -5 -18 -17 -18 -24 0 -19 5 -19 34 0 25 17 56 11 56
-10 0 -7 -18 -15 -42 -19 -53 -9 -68 -21 -68 -57 l0 -29 64 1 65 2 6 62 c4 35
4 68 0 74 -8 14 -74 14 -97 0z"/>
<path d="M6121 621 c-25 -25 -36 -82 -22 -110 13 -23 67 -29 101 -11 18 10 40
59 40 91 0 47 -82 67 -119 30z"/>
<path d="M5105 310 c-6 -34 -9 -38 -24 -28 -27 17 -69 1 -86 -32 -37 -71 3
-133 66 -100 13 7 19 7 19 0 0 -5 4 -10 8 -10 5 0 14 35 21 78 7 42 15 89 18
105 3 15 1 27 -5 27 -6 0 -13 -18 -17 -40z"/>
<path d="M5787 249 c-17 -96 -16 -130 2 -100 6 9 11 10 15 2 9 -15 47 -14 67
2 37 28 52 100 27 125 -16 16 -61 15 -77 0 -10 -11 -11 -5 -5 30 4 24 3 42 -3
42 -5 0 -17 -46 -26 -101z"/>
<path d="M3223 275 c-24 -17 -39 -71 -28 -104 8 -26 46 -37 74 -21 27 14 28
-3 1 -30 -24 -24 -47 -25 -72 -3 -17 15 -18 15 -18 -1 0 -26 43 -41 79 -26 33
13 43 36 60 134 11 59 7 82 -8 57 -6 -9 -11 -10 -15 -2 -10 16 -48 14 -73 -4z"/>
<path d="M5635 265 c-32 -31 -35 -99 -6 -115 53 -28 111 12 111 78 0 21 -5 43
-12 50 -20 20 -67 14 -93 -13z"/>
</g>
</svg>
